<svg width="300" height="74" viewBox="0 0 300 74" fill="none" xmlns="http://www.w3.org/2000/svg">
<path d="M275.394 24.2102C274.374 24.2102 273.547 23.3829 273.547 22.3624V22.3624C273.547 21.3418 274.374 20.5145 275.394 20.5145H298.152C299.172 20.5145 300 21.3418 300 22.3624V22.3624C300 23.3829 299.172 24.2102 298.152 24.2102H290.816C289.711 24.2102 288.816 25.1056 288.816 26.2102V52.0672C288.816 53.1717 287.92 54.0672 286.816 54.0672H286.731C285.626 54.0672 284.731 53.1717 284.731 52.0672V26.2102C284.731 25.1056 283.835 24.2102 282.731 24.2102H275.394Z" fill="#5433A1"/>
<path d="M259.015 54.0672C252.972 54.0672 248.074 49.1687 248.074 43.1261V31.4556C248.074 25.413 252.972 20.5145 259.015 20.5145H268.108C269.129 20.5145 269.956 21.3418 269.956 22.3624V22.3624C269.956 23.3829 269.129 24.2102 268.108 24.2102H257.362C254.488 24.2102 252.158 26.5397 252.158 29.4133V29.4133C252.158 32.2869 254.488 34.6164 257.362 34.6164H266.649C267.67 34.6164 268.497 35.4437 268.497 36.4642V36.4642C268.497 37.4847 267.67 38.312 266.649 38.312H258.188C254.858 38.312 252.158 41.0116 252.158 44.3418V44.3418C252.158 47.6719 254.858 50.3715 258.188 50.3715H268.108C269.129 50.3715 269.956 51.1988 269.956 52.2194V52.2194C269.956 53.2399 269.129 54.0672 268.108 54.0672H259.015Z" fill="#5433A1"/>
<path d="M215.118 54.0672C213.99 54.0672 213.076 53.1528 213.076 52.0248V23.4444C213.076 21.8263 214.387 20.5145 216.006 20.5145V20.5145C216.999 20.5145 217.924 21.0175 218.464 21.8508L226.054 33.5596C228.763 37.7388 235.25 35.8203 235.25 30.8399V22.5569C235.25 21.4289 236.164 20.5145 237.292 20.5145V20.5145C238.42 20.5145 239.334 21.4289 239.334 22.5569V51.1373C239.334 52.7554 238.023 54.0672 236.404 54.0672V54.0672C235.411 54.0672 234.486 53.5642 233.946 52.7309L226.356 41.0222C223.647 36.8429 217.16 38.7614 217.16 43.7418V52.0248C217.16 53.1528 216.246 54.0672 215.118 54.0672V54.0672Z" fill="#5433A1"/>
<path d="M195.334 54.0672C189.292 54.0672 184.393 49.1687 184.393 43.1261V31.4556C184.393 25.413 189.292 20.5145 195.334 20.5145H204.428C205.448 20.5145 206.275 21.3418 206.275 22.3624V22.3624C206.275 23.3829 205.448 24.2102 204.428 24.2102H193.681C190.807 24.2102 188.478 26.5397 188.478 29.4133V29.4133C188.478 32.2869 190.807 34.6164 193.681 34.6164H202.969C203.989 34.6164 204.817 35.4437 204.817 36.4642V36.4642C204.817 37.4847 203.989 38.312 202.969 38.312H194.508C191.178 38.312 188.478 41.0116 188.478 44.3418V44.3418C188.478 47.6719 191.178 50.3715 194.508 50.3715H204.428C205.448 50.3715 206.275 51.1988 206.275 52.2194V52.2194C206.275 53.2399 205.448 54.0672 204.428 54.0672H195.334Z" fill="#5433A1"/>
<path d="M151.331 46.6272C151.331 46.6272 151.331 35.2466 151.331 27.9545C151.331 22.9945 153.811 20.5145 158.771 20.5145C163.26 20.5145 169.72 20.5145 172.314 20.5145C173.055 20.5145 173.773 20.7614 174.358 21.2162L175.127 21.8144C175.453 22.0681 175.644 22.4581 175.644 22.8713V22.8713C175.644 23.6107 175.045 24.2102 174.305 24.2102C171.301 24.2102 163.882 24.2102 158.722 24.2102C156.517 24.2102 155.415 25.3124 155.415 27.5168C155.415 35.1508 155.415 47.0649 155.415 47.0649C155.415 49.2693 156.517 50.3715 158.722 50.3715H170.532C171.637 50.3715 172.532 49.4761 172.532 48.3715V41.0676C172.532 39.5457 171.298 38.312 169.776 38.312H166.113C165.093 38.312 164.265 37.4847 164.265 36.4642V36.4642C164.265 35.4437 165.093 34.6164 166.113 34.6164H170.617C173.93 34.6164 176.617 37.3027 176.617 40.6164V50.0672C176.617 52.2763 174.826 54.0672 172.617 54.0672H158.771C153.811 54.0672 151.331 51.5872 151.331 46.6272Z" fill="#5433A1"/>
<path d="M134.076 54.0672C128.033 54.0672 123.135 49.1687 123.135 43.1261V31.4556C123.135 25.413 128.033 20.5145 134.076 20.5145H143.169C144.19 20.5145 145.017 21.3418 145.017 22.3624V22.3624C145.017 23.3829 144.19 24.2102 143.169 24.2102H132.423C129.549 24.2102 127.219 26.5397 127.219 29.4133V29.4133C127.219 32.2869 129.549 34.6164 132.423 34.6164H141.71C142.731 34.6164 143.558 35.4437 143.558 36.4642V36.4642C143.558 37.4847 142.731 38.312 141.71 38.312H133.249C129.919 38.312 127.219 41.0116 127.219 44.3418V44.3418C127.219 47.6719 129.919 50.3715 133.249 50.3715H143.169C144.19 50.3715 145.017 51.1988 145.017 52.2194V52.2194C145.017 53.2399 144.19 54.0672 143.169 54.0672H134.076Z" fill="#5433A1"/>
<path d="M90.1788 54.0672C89.0509 54.0672 88.1365 53.1528 88.1365 52.0248V23.4444C88.1365 21.8263 89.4482 20.5145 91.0664 20.5145V20.5145C92.0594 20.5145 92.9848 21.0175 93.525 21.8508L101.115 33.5596C103.824 37.7388 110.31 35.8203 110.31 30.8399V22.5569C110.31 21.4289 111.225 20.5145 112.353 20.5145V20.5145C113.481 20.5145 114.395 21.4289 114.395 22.5569V51.1373C114.395 52.7554 113.083 54.0672 111.465 54.0672V54.0672C110.472 54.0672 109.547 53.5642 109.007 52.7309L101.417 41.0222C98.7078 36.8429 92.2211 38.7614 92.2211 43.7418V52.0248C92.2211 53.1528 91.3068 54.0672 90.1788 54.0672V54.0672Z" fill="#5433A1"/>
<path d="M56.7002 0C66.089 0 73.7002 7.61116 73.7002 17V73.7002H17C7.61116 73.7002 0 66.089 0 56.7002V17C0 7.61116 7.61116 0 17 0H56.7002ZM18.1963 47.8496C16.5394 47.8496 15.1963 49.1928 15.1963 50.8496V52.4385C15.1964 54.0952 16.5395 55.4385 18.1963 55.4385H55.5049C57.1615 55.4383 58.5048 54.0951 58.5049 52.4385V50.8496C58.5049 49.1929 57.1616 47.8498 55.5049 47.8496H18.1963ZM18.1963 33.4229C16.5394 33.4229 15.1963 34.766 15.1963 36.4229V38.0117C15.1964 39.6685 16.5395 41.0117 18.1963 41.0117H55.5049C57.1615 41.0115 58.5048 39.6684 58.5049 38.0117V36.4229C58.5049 34.7661 57.1616 33.423 55.5049 33.4229H18.1963ZM18.1963 18.9951C16.5394 18.9951 15.1963 20.3383 15.1963 21.9951V23.584C15.1964 25.2408 16.5395 26.584 18.1963 26.584H55.5049C57.1615 26.5838 58.5048 25.2406 58.5049 23.584V21.9951C58.5049 20.3384 57.1616 18.9953 55.5049 18.9951H18.1963Z" fill="#5433A1"/>
<path d="M56.7002 0C66.089 0 73.7002 7.61116 73.7002 17V73.7002H17C7.61116 73.7002 0 66.089 0 56.7002V17C0 7.61116 7.61116 0 17 0H56.7002ZM18.1963 47.8496C16.5394 47.8496 15.1963 49.1928 15.1963 50.8496V52.4385C15.1964 54.0952 16.5395 55.4385 18.1963 55.4385H55.5049C57.1615 55.4383 58.5048 54.0951 58.5049 52.4385V50.8496C58.5049 49.1929 57.1616 47.8498 55.5049 47.8496H18.1963ZM18.1963 33.4229C16.5394 33.4229 15.1963 34.766 15.1963 36.4229V38.0117C15.1964 39.6685 16.5395 41.0117 18.1963 41.0117H55.5049C57.1615 41.0115 58.5048 39.6684 58.5049 38.0117V36.4229C58.5049 34.7661 57.1616 33.423 55.5049 33.4229H18.1963ZM18.1963 18.9951C16.5394 18.9951 15.1963 20.3383 15.1963 21.9951V23.584C15.1964 25.2408 16.5395 26.584 18.1963 26.584H55.5049C57.1615 26.5838 58.5048 25.2406 58.5049 23.584V21.9951C58.5049 20.3384 57.1616 18.9953 55.5049 18.9951H18.1963Z" fill="#5433A1"/>
</svg>
